<mxfile host="app.diagrams.net" agent="Mozilla/5.0 (Windows NT 10.0; Win64; x64) AppleWebKit/537.36 (KHTML, like Gecko) Chrome/131.0.0.0 Safari/537.36" version="24.9.1">
  <diagram name="Page-1" id="2D16G7L7fkPTULA1VdRA">
    <mxGraphModel dx="1050" dy="1699" grid="1" gridSize="10" guides="1" tooltips="1" connect="1" arrows="1" fold="1" page="1" pageScale="1" pageWidth="827" pageHeight="1169" math="0" shadow="0">
      <root>
        <mxCell id="0" />
        <mxCell id="1" parent="0" />
        <mxCell id="G4d-tlMkoe-ynQuo3t8v-3" value="" style="edgeStyle=orthogonalEdgeStyle;rounded=0;orthogonalLoop=1;jettySize=auto;html=1;" edge="1" parent="1" source="G4d-tlMkoe-ynQuo3t8v-1" target="G4d-tlMkoe-ynQuo3t8v-2">
          <mxGeometry relative="1" as="geometry" />
        </mxCell>
        <mxCell id="G4d-tlMkoe-ynQuo3t8v-1" value="" style="shape=parallelogram;html=1;strokeWidth=2;perimeter=parallelogramPerimeter;whiteSpace=wrap;rounded=1;arcSize=12;size=0.23;align=center;verticalAlign=middle;" vertex="1" parent="1">
          <mxGeometry x="280" y="80" width="100" height="60" as="geometry" />
        </mxCell>
        <mxCell id="G4d-tlMkoe-ynQuo3t8v-5" value="" style="edgeStyle=orthogonalEdgeStyle;rounded=0;orthogonalLoop=1;jettySize=auto;html=1;" edge="1" parent="1" source="G4d-tlMkoe-ynQuo3t8v-2" target="G4d-tlMkoe-ynQuo3t8v-4">
          <mxGeometry relative="1" as="geometry" />
        </mxCell>
        <mxCell id="G4d-tlMkoe-ynQuo3t8v-2" value="" style="rounded=1;whiteSpace=wrap;html=1;strokeWidth=2;arcSize=12;" vertex="1" parent="1">
          <mxGeometry x="270" y="220" width="120" height="60" as="geometry" />
        </mxCell>
        <mxCell id="G4d-tlMkoe-ynQuo3t8v-7" value="" style="edgeStyle=orthogonalEdgeStyle;rounded=0;orthogonalLoop=1;jettySize=auto;html=1;" edge="1" parent="1" source="G4d-tlMkoe-ynQuo3t8v-4" target="G4d-tlMkoe-ynQuo3t8v-6">
          <mxGeometry relative="1" as="geometry" />
        </mxCell>
        <mxCell id="G4d-tlMkoe-ynQuo3t8v-9" value="" style="edgeStyle=orthogonalEdgeStyle;rounded=0;orthogonalLoop=1;jettySize=auto;html=1;" edge="1" parent="1" source="G4d-tlMkoe-ynQuo3t8v-4" target="G4d-tlMkoe-ynQuo3t8v-8">
          <mxGeometry relative="1" as="geometry" />
        </mxCell>
        <mxCell id="G4d-tlMkoe-ynQuo3t8v-4" value="" style="rhombus;whiteSpace=wrap;html=1;rounded=1;strokeWidth=2;arcSize=12;" vertex="1" parent="1">
          <mxGeometry x="290" y="350" width="80" height="80" as="geometry" />
        </mxCell>
        <mxCell id="tszFdlQoDaxFwRJ65qVa-28" value="" style="edgeStyle=orthogonalEdgeStyle;rounded=0;orthogonalLoop=1;jettySize=auto;html=1;" edge="1" parent="1" source="G4d-tlMkoe-ynQuo3t8v-6" target="tszFdlQoDaxFwRJ65qVa-27">
          <mxGeometry relative="1" as="geometry" />
        </mxCell>
        <mxCell id="G4d-tlMkoe-ynQuo3t8v-6" value="" style="whiteSpace=wrap;html=1;rounded=1;strokeWidth=2;arcSize=12;" vertex="1" parent="1">
          <mxGeometry x="430" y="360" width="120" height="60" as="geometry" />
        </mxCell>
        <mxCell id="tszFdlQoDaxFwRJ65qVa-16" value="" style="edgeStyle=orthogonalEdgeStyle;rounded=0;orthogonalLoop=1;jettySize=auto;html=1;" edge="1" parent="1" source="G4d-tlMkoe-ynQuo3t8v-8" target="tszFdlQoDaxFwRJ65qVa-15">
          <mxGeometry relative="1" as="geometry" />
        </mxCell>
        <mxCell id="G4d-tlMkoe-ynQuo3t8v-8" value="" style="whiteSpace=wrap;html=1;rounded=1;strokeWidth=2;arcSize=12;" vertex="1" parent="1">
          <mxGeometry x="270" y="520" width="120" height="60" as="geometry" />
        </mxCell>
        <mxCell id="tszFdlQoDaxFwRJ65qVa-2" value="" style="edgeStyle=orthogonalEdgeStyle;rounded=0;orthogonalLoop=1;jettySize=auto;html=1;" edge="1" parent="1" source="tszFdlQoDaxFwRJ65qVa-1" target="G4d-tlMkoe-ynQuo3t8v-1">
          <mxGeometry relative="1" as="geometry" />
        </mxCell>
        <mxCell id="tszFdlQoDaxFwRJ65qVa-1" value="" style="strokeWidth=2;html=1;shape=mxgraph.flowchart.terminator;whiteSpace=wrap;" vertex="1" parent="1">
          <mxGeometry x="280" y="-50" width="100" height="60" as="geometry" />
        </mxCell>
        <mxCell id="tszFdlQoDaxFwRJ65qVa-15" value="" style="strokeWidth=2;html=1;shape=mxgraph.flowchart.terminator;whiteSpace=wrap;" vertex="1" parent="1">
          <mxGeometry x="280" y="650" width="100" height="60" as="geometry" />
        </mxCell>
        <mxCell id="tszFdlQoDaxFwRJ65qVa-29" value="" style="edgeStyle=orthogonalEdgeStyle;rounded=0;orthogonalLoop=1;jettySize=auto;html=1;" edge="1" parent="1" source="tszFdlQoDaxFwRJ65qVa-27" target="tszFdlQoDaxFwRJ65qVa-15">
          <mxGeometry relative="1" as="geometry" />
        </mxCell>
        <mxCell id="tszFdlQoDaxFwRJ65qVa-27" value="" style="shape=waypoint;sketch=0;size=6;pointerEvents=1;points=[];fillColor=default;resizable=0;rotatable=0;perimeter=centerPerimeter;snapToPoint=1;rounded=1;strokeWidth=2;arcSize=12;" vertex="1" parent="1">
          <mxGeometry x="480" y="670" width="20" height="20" as="geometry" />
        </mxCell>
      </root>
    </mxGraphModel>
  </diagram>
</mxfile>
